<svg xmlns="http://www.w3.org/2000/svg" width="1600" height="900" viewBox="0 0 1600 900"><defs><linearGradient id="brand" x1="0" y1="0" x2="1" y2="1"><stop offset="0" stop-color="#0B8A6A"/><stop offset=".5" stop-color="#0A73D9"/><stop offset="1" stop-color="#B45C3D"/></linearGradient><style>text{font-family:Arial,Helvetica,sans-serif}.navy{fill:#10233F}.muted{fill:#667085}.h{font-weight:800}.card{fill:#fff;stroke:#D9E0E8;stroke-width:2}</style></defs><rect width="1600" height="900" fill="#F7F8FA"/><path d="M80 105l34-38 34 38h-12l-22-24-22 24z" fill="url(#brand)"/><text x="164" y="98" class="navy h" font-size="30">APEX</text><text x="80" y="178" class="navy h" font-size="54">How APEX gets its first dollars</text><text x="80" y="220" class="muted" font-size="24">Sell five paid integrations and productize what repeats.</text><rect x="1225" y="68" width="295" height="44" rx="22" fill="#10233F"/><text x="1372" y="97" text-anchor="middle" fill="#fff" font-size="18" font-weight="700">FIRST 5 CUSTOMERS</text><rect class="card" x="100" y="300" width="430" height="360" rx="28"/><text x="140" y="355" fill="#B45C3D" class="h" font-size="22">FOUNDING PARTNER</text><text x="140" y="425" class="navy h" font-size="54">$2,000</text><text x="140" y="458" class="muted" font-size="18">implementation</text><text x="140" y="525" class="navy h" font-size="46">$299/mo</text><text x="140" y="558" class="muted" font-size="18">early access infrastructure</text><line x1="140" y1="590" x2="490" y2="590" stroke="#D9E0E8"/><text x="140" y="625" class="muted" font-size="18">You personally help them get live.</text><g><circle cx="980" cy="285" r="92" fill="#fff" stroke="#0A73D9" stroke-width="5"/><text x="980" y="280" text-anchor="middle" class="navy h" font-size="20">Find AI SaaS</text><circle cx="1260" cy="395" r="92" fill="#fff" stroke="#0B8A6A" stroke-width="5"/><text x="1260" y="390" text-anchor="middle" class="navy h" font-size="20">Show working demo</text><circle cx="1190" cy="655" r="92" fill="#fff" stroke="#B45C3D" stroke-width="5"/><text x="1190" y="650" text-anchor="middle" class="navy h" font-size="20">Get paid</text><circle cx="770" cy="690" r="92" fill="#fff" stroke="#0A73D9" stroke-width="5"/><text x="770" y="685" text-anchor="middle" class="navy h" font-size="20">Integrate + observe</text><circle cx="650" cy="420" r="92" fill="#fff" stroke="#0B8A6A" stroke-width="5"/><text x="650" y="410" text-anchor="middle" class="navy h" font-size="19">Turn repeats</text><text x="650" y="435" text-anchor="middle" class="navy h" font-size="19">into product</text></g><g fill="none" stroke-width="4" stroke-linecap="round"><path d="M1055 320l120 55m-15-14l15 14-20 2" stroke="#0A73D9"/><path d="M1270 490l-45 85m1-19l-1 19 17-9" stroke="#0B8A6A"/><path d="M1115 685l-235 5m18-9l-18 9 18 8" stroke="#B45C3D"/><path d="M700 625l-45-120m-2 19l2-19 13 14" stroke="#0A73D9"/><path d="M735 350l155-50m-20-2l20 2-13 15" stroke="#0B8A6A"/></g><rect x="580" y="790" width="890" height="58" rx="20" fill="#10233F"/><text x="1025" y="828" text-anchor="middle" fill="#fff" class="h" font-size="22">Goal: 5 paid design partners → 3 live integrations → 1 self-serve install</text></svg>